# xmcd
#
# Track frame offsets:
#	150
#	9780
#	24842
#	46010
#	63750
#	75982
#	92345
#	106500
#	122235
#	136770
#	158532
#	178570
#	192227
#	205605
#
# Disc length: 3084 seconds
#
# Revision: 0
# Processed by: cddbd v1.4PL0 Copyright (c) Steve Scherf et al.
# Submitted via: EasyCDDAExtractor 4.6.9.1
#
DISCID=890c0a0e
DTITLE=Dragstrip 77 - Sin City Hotrods
DYEAR=1999
DGENRE=Rockabilly
TTITLE0=Daisy Dukes
TTITLE1=Rockin' Bones
TTITLE2=Haunted
TTITLE3=Marylou
TTITLE4=Dark Highway
TTITLE5=Memphis
TTITLE6=Sin City Hotrods
TTITLE7=Catchain
TTITLE8=Blue Shadows
TTITLE9=Relentless
TTITLE10=Bad News Blues
TTITLE11=Rock 'n' Roll Zombies
TTITLE12=My Name is Nobody
TTITLE13=Lonely Hotel Room
EXTD=
EXTT0=
EXTT1=
EXTT2=
EXTT3=
EXTT4=
EXTT5=
EXTT6=
EXTT7=
EXTT8=
EXTT9=
EXTT10=
EXTT11=
EXTT12=
EXTT13=
PLAYORDER=
